<svg width="68" height="68" viewBox="0 0 68 68" fill="none" xmlns="http://www.w3.org/2000/svg">
<path d="M67.8797 31.5926C67.8647 31.378 67.8475 31.1634 67.8303 30.951C67.8153 30.7858 67.8024 30.6227 67.7853 30.4596C67.7574 30.1892 67.7273 29.9189 67.6909 29.6507C67.6737 29.509 67.6544 29.3674 67.6351 29.2279C67.6201 29.1207 67.6029 29.0134 67.59 28.9039C67.4784 28.1529 67.3411 27.4105 67.1823 26.6766C67.1501 26.5393 67.1201 26.402 67.0879 26.2646C66.9055 25.475 66.6952 24.6939 66.4592 23.9257C66.4184 23.7948 66.3776 23.6618 66.3347 23.5309C66.3154 23.4665 66.294 23.4022 66.2725 23.3378C66.2425 23.2391 66.2081 23.1447 66.1738 23.046C66.1416 22.9473 66.1073 22.8507 66.073 22.752C66.0279 22.6211 65.9828 22.4902 65.9335 22.3636C65.8584 22.1555 65.7833 21.9495 65.7039 21.7435C65.6695 21.6577 65.6374 21.574 65.603 21.4881C65.397 20.9646 65.176 20.4474 64.9443 19.9346C64.8949 19.8187 64.8413 19.705 64.7855 19.5913C64.7469 19.5076 64.7082 19.4239 64.6675 19.3424C64.6203 19.2394 64.5688 19.1364 64.5194 19.0355C64.3907 18.7695 64.2576 18.5098 64.1224 18.248C64.0602 18.1279 63.9958 18.0056 63.9336 17.8897C63.8692 17.7695 63.8049 17.6494 63.7383 17.5335C63.674 17.4133 63.6075 17.2974 63.5388 17.1794C63.2448 16.658 62.9337 16.1452 62.6097 15.6431C62.5389 15.5272 62.4638 15.4135 62.3865 15.2997C62.3157 15.1882 62.2406 15.0766 62.1676 14.9693C62.0883 14.8513 62.0089 14.7375 61.9273 14.6217C61.8501 14.5101 61.7707 14.3985 61.6934 14.2869C61.451 13.9436 61.202 13.6089 60.9488 13.2763C60.8695 13.1776 60.7965 13.081 60.7171 12.9823C60.6313 12.8729 60.5454 12.7613 60.4553 12.6519C60.3738 12.551 60.2901 12.448 60.2064 12.3472C60.1206 12.242 60.0326 12.1369 59.9446 12.0339C59.8567 11.9309 59.7665 11.8279 59.6786 11.7249C59.5906 11.6219 59.5005 11.5189 59.4103 11.418C59.3202 11.315 59.2279 11.2142 59.1378 11.1133C58.2259 10.1113 57.2538 9.16069 56.226 8.27234C56.1316 8.1908 56.0393 8.1114 55.9449 8.02986C55.49 7.64362 55.0265 7.27026 54.5502 6.90977C54.445 6.82823 54.3377 6.74669 54.2261 6.6673C53.7133 6.28321 53.1876 5.91842 52.6511 5.56652C52.5396 5.48927 52.4237 5.41631 52.3078 5.34336C51.5997 4.88845 50.8745 4.4593 50.1299 4.05804C50.0097 3.99367 49.8895 3.92929 49.7715 3.86707C49.5312 3.74047 49.2909 3.61816 49.0463 3.49799C48.8231 3.38856 48.5999 3.27912 48.3768 3.17613C47.7395 2.87357 47.0893 2.59677 46.4306 2.33928C46.1838 2.24057 45.937 2.1483 45.6881 2.05603C45.2933 1.91227 44.8963 1.77279 44.4929 1.64405C44.1346 1.52817 43.7741 1.41874 43.4136 1.3136C43.2462 1.26639 43.0767 1.21704 42.9051 1.17198C42.6368 1.10117 42.3686 1.03036 42.0982 0.963837C41.9588 0.929504 41.8236 0.897318 41.6841 0.865131C41.4159 0.802904 41.1455 0.744968 40.8752 0.691324C40.7378 0.663429 40.6026 0.635534 40.4653 0.609784C40.4589 0.607639 40.4503 0.605493 40.4439 0.605493C39.7894 0.478892 39.1285 0.37375 38.4612 0.283627C38.4182 0.279336 38.3732 0.270753 38.3281 0.266461C38.1586 0.245003 37.9848 0.225691 37.8153 0.206379C37.3003 0.148444 36.781 0.103382 36.2617 0.06905C36.1201 0.0604669 35.9764 0.049738 35.8326 0.0433007C35.5451 0.0282803 35.2575 0.0175515 34.97 0.00896838C34.8262 0.00467684 34.6825 0.00253107 34.5365 0.000385294C34.3649 -0.00176048 34.1932 -0.00390625 34.0216 -0.00390625C33.8499 -0.00390625 33.6739 -0.00176048 33.5023 0.000385294C26.1809 0.148444 19.617 3.38641 15.0658 8.46546C14.9585 8.58562 14.8534 8.70578 14.7482 8.82594C12.7033 11.197 11.0875 13.9458 10.0232 16.9584C10.1713 17.379 10.3322 17.7996 10.5039 18.2094C10.7356 18.7737 10.9888 19.3274 11.2635 19.8702C11.948 21.2371 12.7527 22.5331 13.6625 23.7433C13.7483 23.8614 13.8363 23.9729 13.9286 24.0888C14.9521 25.4085 16.1044 26.623 17.3682 27.7152C17.4755 27.8117 17.5828 27.9019 17.6944 27.9963C17.8231 28.1036 17.9562 28.2108 18.0871 28.316C19.0269 29.0734 20.0204 29.7622 21.0654 30.3802C21.5332 30.657 22.0095 30.921 22.4945 31.1677C23.5953 31.7278 24.7454 32.2106 25.932 32.6097C26.1809 32.6934 26.4298 32.7728 26.6809 32.8457C27.8804 33.2062 29.1206 33.483 30.3888 33.6654C30.4725 33.6783 30.554 33.6911 30.6334 33.7083C30.6978 33.7233 30.7621 33.7362 30.8244 33.7512C30.8286 33.7534 30.8329 33.7534 30.8394 33.7555C30.9059 33.7727 30.9724 33.792 31.0411 33.8135C31.1097 33.8349 31.1741 33.8564 31.2406 33.88C31.305 33.9036 31.3694 33.9272 31.4316 33.9572C31.4853 33.9787 31.5368 34.0023 31.5883 34.0259C31.6655 34.0624 31.7385 34.101 31.8136 34.1418C31.8543 34.1632 31.893 34.1847 31.9316 34.2083C32.2878 34.4164 32.6118 34.6804 32.8907 34.9808C32.9465 35.0408 33.0002 35.1031 33.0538 35.1674C33.0924 35.2104 33.1246 35.2554 33.159 35.3005C33.2083 35.3649 33.2598 35.4335 33.3049 35.5043C33.3414 35.558 33.3757 35.6095 33.4079 35.6653C33.4465 35.7232 33.4787 35.7833 33.5109 35.8434C33.513 35.8477 33.5152 35.8519 33.5173 35.8562C33.5774 35.9657 33.6289 36.0772 33.6804 36.191C33.6825 36.1974 33.6847 36.2081 33.689 36.2146C33.7147 36.2768 33.7383 36.3412 33.7641 36.4055C33.7877 36.4699 33.8113 36.5364 33.8306 36.6051C33.852 36.6695 33.8714 36.7339 33.8864 36.7982C33.9078 36.8776 33.9272 36.957 33.9422 37.0386C33.9486 37.075 33.9572 37.1094 33.9636 37.1458C33.9701 37.1909 33.9786 37.2338 33.9829 37.2789C33.9894 37.3325 33.998 37.384 34.0023 37.4377C34.0065 37.4806 34.0087 37.5235 34.0108 37.5664C34.0151 37.6007 34.0151 37.6329 34.0173 37.6673C34.0194 37.7316 34.0216 37.796 34.0216 37.8625C34.0216 40.1199 32.247 41.9738 30.0218 42.0983C29.9425 42.1026 29.8609 42.1047 29.7815 42.1047C29.7064 42.1047 29.6335 42.1026 29.5605 42.1004C27.7323 42.0232 26.1487 40.9911 25.3011 39.4933C24.7561 39.695 24.2025 39.8731 23.6382 40.034C23.6017 40.0426 23.5674 40.0555 23.5309 40.0662C23.3721 40.1092 23.2133 40.1521 23.0524 40.1928C22.8614 40.2422 22.6704 40.2915 22.4752 40.3345C22.3142 40.3731 22.1576 40.4053 21.9945 40.4396C21.9237 40.4568 21.8486 40.4718 21.7735 40.4825C21.6533 40.5083 21.5332 40.5319 21.413 40.5512C21.3036 40.5748 21.1898 40.5941 21.0783 40.6113C20.8251 40.6542 20.5676 40.6928 20.3122 40.7293C20.3122 40.7293 20.3101 40.7314 20.3079 40.7293C20.2414 40.7422 20.1706 40.7486 20.1019 40.7572C21.8035 45.229 26.138 48.4133 31.1956 48.4133H32.0861C33.0839 48.4133 33.9615 49.1665 34.0194 50.1664C34.043 50.5784 33.9357 50.9646 33.7319 51.2822C33.4272 51.7607 32.9122 52.0933 32.3178 52.1448C32.262 52.1491 32.2105 52.1512 32.1547 52.1512H31.9015C24.7347 52.1512 18.6364 47.4928 16.4799 41.0404L16.4434 40.9417L16.3426 40.9374C16.2417 40.9353 16.1387 40.9331 16.0378 40.9288C15.9713 40.9267 15.907 40.9245 15.8383 40.9203C15.6795 40.9138 15.5229 40.9031 15.3641 40.8924C15.2611 40.8859 15.1581 40.8773 15.0572 40.8688C14.907 40.8559 14.7525 40.8452 14.6023 40.828C14.4006 40.8087 14.2011 40.7851 14.0015 40.7593C13.8642 40.7422 13.7311 40.725 13.596 40.7035C13.4694 40.6864 13.3428 40.6671 13.2183 40.6456C13.081 40.6241 12.9458 40.6005 12.8085 40.5769C12.6432 40.549 12.4759 40.5168 12.3106 40.4804C12.2227 40.4632 12.1325 40.4439 12.0446 40.4246C11.9695 40.4096 11.8965 40.3967 11.8214 40.3774C11.712 40.3538 11.6004 40.328 11.491 40.3001C11.4716 40.298 11.4545 40.2937 11.4373 40.2873C11.3107 40.2594 11.1841 40.2272 11.0597 40.1928C10.9888 40.1757 10.9159 40.1564 10.8451 40.137C10.7378 40.1049 10.6262 40.077 10.5254 40.0469L10.3752 40.0062L10.4031 40.1564C12.3857 50.2179 21.2542 57.8053 31.8994 57.8053H32.0775C33.0881 57.8053 33.9701 58.5757 34.0194 59.5842C34.0688 60.6249 33.2662 61.4875 32.2513 61.539C32.2513 61.539 32.0732 61.539 32.0367 61.5368C18.8982 61.2557 8.09634 51.2908 6.50204 38.5084C6.50204 38.5084 6.14155 38.326 5.8862 38.193C5.75746 38.1265 5.633 38.0599 5.5064 37.9891C5.3798 37.9205 5.25534 37.8497 5.13089 37.7788C4.95923 37.678 4.78756 37.5771 4.61805 37.4741C4.45282 37.3733 4.28975 37.2724 4.12667 37.1673C3.97861 37.0707 3.83055 36.9763 3.68464 36.8776C3.63958 36.8454 3.59666 36.8175 3.55375 36.7875C3.42715 36.7017 3.30269 36.6158 3.17824 36.5257C3.17395 36.5214 3.16536 36.5171 3.15893 36.5107C3.00658 36.4034 2.85423 36.2918 2.70617 36.1802C2.61605 36.1137 2.52378 36.0472 2.4358 35.9764C2.41434 35.9592 2.39288 35.9421 2.37357 35.927C2.35641 35.9142 2.33924 35.9013 2.32422 35.8863C2.30706 35.8713 2.28774 35.8605 2.27057 35.8455C2.12895 35.7382 1.98733 35.6245 1.85001 35.5108C1.68263 35.3713 1.51741 35.234 1.35219 35.0902C1.27708 35.028 1.20413 34.9636 1.13117 34.8971C1.11615 34.8885 1.10542 34.8756 1.0904 34.8627C1.08182 34.8542 1.06894 34.8434 1.06036 34.8348C0.972384 34.7576 0.886554 34.6782 0.798578 34.5988C0.794286 34.5924 0.785704 34.5859 0.781413 34.5816C0.721331 34.528 0.661249 34.4744 0.603313 34.4186C0.596876 34.6911 0.594727 34.9636 0.594727 35.2383C0.594727 42.9609 3.34346 50.0548 7.91396 55.5909C8.56842 56.3805 9.25936 57.1423 9.98248 57.8654C10.0726 57.9555 10.1649 58.0478 10.255 58.1358C16.3769 64.1461 24.7668 67.8518 34.0237 67.8518C52.7627 67.8518 67.9527 52.6619 67.9527 33.9229C67.9527 33.1375 67.9269 32.3565 67.8733 31.5861L67.8797 31.5926ZM54.3184 36.8175C54.4064 37.0514 54.5416 37.2682 54.7068 37.4527C54.5652 37.6136 54.4021 37.7509 54.2176 37.8647C54.0609 37.9591 53.8936 38.0342 53.7155 38.0878C53.5266 38.1436 53.3249 38.1737 53.1146 38.1737C51.943 38.1737 50.9946 37.2231 50.9946 36.0536C50.9946 34.8842 51.9452 33.9336 53.1146 33.9336C53.3357 33.9336 53.5438 33.968 53.7412 34.0302C53.9644 34.0967 54.1704 34.2018 54.3549 34.337C54.4836 34.4272 54.6017 34.5366 54.7068 34.6546C54.5738 34.8048 54.46 34.9765 54.3764 35.1589C54.2455 35.4292 54.1746 35.7339 54.1746 36.0536C54.1746 36.324 54.224 36.5815 54.3184 36.8175Z" fill="black"/>
</svg>
