<svg xmlns:xlink="http://www.w3.org/1999/xlink"  xmlns="http://www.w3.org/2000/svg" width="24" height="24" viewBox="0 0 24 24" fill="none">
<path d="M12.0016 6.99158V14.9858L15.2324 16.9513L14.3796 13.2706L17.2354 10.8098L13.4844 10.4723L12.0016 6.99158ZM12.0016 16.6281L8.08337 18.9946C7.94687 19.0741 7.8097 19.1071 7.67187 19.0936C7.53404 19.0801 7.41029 19.0336 7.30062 18.9541C7.19112 18.8746 7.10762 18.7699 7.05012 18.6401C6.99279 18.5104 6.98595 18.3696 7.02962 18.2176L8.06987 13.7723L4.61512 10.7791C4.49529 10.6759 4.4177 10.5556 4.38237 10.4181C4.3472 10.2806 4.35237 10.1493 4.39787 10.0243C4.44337 9.89933 4.51804 9.79291 4.62187 9.70508C4.7257 9.61724 4.85779 9.56249 5.01812 9.54083L9.57087 9.14458L11.3506 4.94558C11.4116 4.79874 11.5012 4.69074 11.6194 4.62158C11.7377 4.55224 11.8651 4.51758 12.0016 4.51758C12.1381 4.51758 12.2655 4.55224 12.3839 4.62158C12.502 4.69074 12.5932 4.79874 12.6574 4.94558L14.4371 9.14458L18.9901 9.54083C19.1471 9.56249 19.2775 9.61724 19.3814 9.70508C19.4852 9.79291 19.5599 9.89933 19.6054 10.0243C19.6509 10.1493 19.656 10.2806 19.6209 10.4181C19.5855 10.5556 19.508 10.6759 19.3881 10.7791L15.9334 13.7723L16.9786 18.2176C17.019 18.3696 17.0105 18.5104 16.9531 18.6401C16.8956 18.7699 16.8121 18.8746 16.7026 18.9541C16.593 19.0336 16.4692 19.0801 16.3314 19.0936C16.1935 19.1071 16.058 19.0741 15.9246 18.9946L12.0016 16.6281Z" fill="#A66C23"/>
</svg>